<svg width="30" height="30" viewBox="0 0 30 30" fill="none" xmlns="http://www.w3.org/2000/svg">
<path d="M15 0C12.0333 0 9.13319 0.879735 6.66645 2.52796C4.19971 4.17618 2.27713 6.51886 1.14181 9.25975C0.00649927 12.0006 -0.290551 15.0166 0.288227 17.9264C0.867006 20.8361 2.29562 23.5088 4.3934 25.6066C6.49119 27.7044 9.16393 29.133 12.0736 29.7118C14.9834 30.2906 17.9994 29.9935 20.7403 28.8582C23.4811 27.7229 25.8238 25.8003 27.472 23.3335C29.1203 20.8668 30 17.9667 30 15C29.9958 11.023 28.4141 7.21017 25.602 4.39804C22.7898 1.5859 18.977 0.00419974 15 0ZM27.6389 13.8462H21.8942C21.6909 9.74134 20.413 5.84567 18.2712 2.74038C20.7796 3.41384 23.0219 4.839 24.6965 6.82434C26.3711 8.80968 27.398 11.26 27.6389 13.8462ZM15 27.6764C12.2986 24.7529 10.6601 20.6091 10.4178 16.1538H19.5822C19.3399 20.6062 17.7014 24.7529 15 27.6764ZM10.4178 13.8462C10.6601 9.39375 12.2928 5.24711 15 2.32356C17.7014 5.24711 19.3399 9.39086 19.5822 13.8462H10.4178ZM11.7289 2.74038C9.58702 5.84567 8.30914 9.74134 8.10577 13.8462H2.36106C2.60205 11.26 3.62886 8.80968 5.30351 6.82434C6.97815 4.839 9.22038 3.41384 11.7289 2.74038ZM2.36106 16.1538H8.10577C8.30914 20.2586 9.58702 24.1543 11.7289 27.2596C9.22038 26.5861 6.97815 25.161 5.30351 23.1757C3.62886 21.1903 2.60205 18.7399 2.36106 16.1538ZM18.2712 27.2596C20.413 24.15 21.6909 20.2543 21.8942 16.1538H27.6389C27.398 18.7399 26.3711 21.1903 24.6965 23.1757C23.0219 25.161 20.7796 26.5861 18.2712 27.2596Z" fill="white"/>
</svg>
